<?xml version="1.0" standalone="no"?>
<!DOCTYPE svg PUBLIC "-//W3C//DTD SVG 20010904//EN"
 "http://www.w3.org/TR/2001/REC-SVG-20010904/DTD/svg10.dtd">
<svg version="1.0" xmlns="http://www.w3.org/2000/svg"
 width="512.000000pt" height="512.000000pt" viewBox="0 0 512.000000 512.000000"
 preserveAspectRatio="xMidYMid meet">
<metadata>
Created by potrace 1.11, written by Peter Selinger 2001-2013
</metadata>
<g transform="translate(0.000000,512.000000) scale(0.100000,-0.100000)"
fill="#000000" stroke="none">
<path d="M3430 4423 c-8 -4 -55 -47 -105 -98 -156 -159 -265 -200 -514 -193
-145 4 -147 4 -281 52 -438 156 -497 172 -654 186 -262 23 -475 -56 -662 -244
-76 -77 -99 -107 -138 -186 -79 -160 -93 -296 -46 -424 62 -164 278 -242 489
-175 88 27 205 108 263 181 51 65 19 64 -46 -2 -108 -108 -229 -155 -385 -148
-116 5 -176 31 -240 104 -65 74 -85 168 -60 286 51 241 283 354 569 278 25 -6
110 -31 190 -55 196 -59 311 -84 442 -94 246 -20 453 26 713 158 112 57 109
56 102 43 -4 -5 -91 -67 -194 -138 -451 -309 -910 -668 -1598 -1253 -372 -316
-484 -404 -718 -566 -140 -97 -177 -129 -177 -156 0 -27 28 -49 62 -49 27 0
50 20 167 140 174 178 206 195 361 195 136 -1 204 -22 397 -122 381 -199 441
-220 613 -210 187 11 351 67 539 184 122 76 301 235 436 388 20 23 24 25 15 7
-25 -51 -657 -1088 -927 -1521 -101 -161 -183 -295 -183 -298 0 -5 247 4 347
13 l63 6 131 231 c239 422 340 589 544 898 236 357 321 473 430 588 99 104
154 141 210 141 78 0 115 -53 115 -163 0 -122 -62 -292 -165 -453 -36 -57 -33
-55 -175 -70 -144 -14 -305 -79 -329 -132 -16 -33 -13 -84 4 -109 33 -47 169
-57 301 -23 102 27 316 133 422 210 52 38 104 66 140 76 225 65 469 231 620
422 78 100 32 72 -96 -57 -126 -128 -220 -200 -337 -258 -62 -32 -205 -86
-211 -80 -2 1 14 23 35 47 104 123 161 262 163 395 2 112 -21 174 -92 247 -82
84 -169 105 -295 73 -127 -33 -292 -160 -432 -333 -134 -165 -158 -193 -137
-157 9 17 171 261 360 543 285 426 339 512 321 512 -43 -1 -389 -29 -392 -32
-2 -2 -49 -79 -105 -173 -249 -415 -415 -610 -620 -729 -118 -69 -166 -81
-305 -80 -135 1 -138 1 -482 103 -297 88 -367 102 -513 102 -155 0 -255 -23
-424 -100 -37 -16 -66 -27 -66 -23 0 4 39 32 87 62 364 229 858 611 1764 1365
461 385 501 415 649 494 63 34 118 67 122 74 13 21 9 75 -8 91 -15 16 -46 19
-74 9z m4 -2610 c-137 -169 -228 -222 -270 -158 -52 79 72 181 250 204 28 4
53 6 55 4 2 -1 -14 -24 -35 -50z"/>
<path d="M4455 2033 c-76 -16 -155 -124 -155 -212 1 -77 52 -161 120 -196 83
-42 193 -22 258 49 151 164 1 406 -223 359z"/>
</g>
</svg>
